HIERARCHY
ROOT Hips
{
	OFFSET 0.00000 0.00000 0.00000
	CHANNELS 6 Xposition Yposition Zposition Zrotation Yrotation Xrotation 
	JOINT LHipJoint
	{
		OFFSET 0 0 0
		CHANNELS 3 Zrotation Yrotation Xrotation
		JOINT LeftHip
		{
			OFFSET 1.62964 -1.40469 0.78906
			CHANNELS 3 Zrotation Yrotation Xrotation
			JOINT LeftKnee
			{
				OFFSET 2.29640 -6.30932 0.00000
				CHANNELS 3 Zrotation Yrotation Xrotation
				JOINT LeftAnkle
				{
					OFFSET 2.29451 -6.30412 0.00000
					CHANNELS 3 Zrotation Yrotation Xrotation
					JOINT LeftToe
					{
						OFFSET 0.03611 -0.09921 1.56387
						CHANNELS 3 Zrotation Yrotation Xrotation
						End Site
						{
							OFFSET 0.00000 -0.00000 0.80291
						}
					}
				}
			}
		}
	}
	JOINT RHipJoint
	{
		OFFSET 0 0 0
		CHANNELS 3 Zrotation Yrotation Xrotation
		JOINT RightHip
		{
			OFFSET -1.73712 -1.40469 0.78906
			CHANNELS 3 Zrotation Yrotation Xrotation
			JOINT RightKnee
			{
				OFFSET -2.28137 -6.26801 0.00000
				CHANNELS 3 Zrotation Yrotation Xrotation
				JOINT RightAnkle
				{
					OFFSET -2.28681 -6.28298 0.00000
					CHANNELS 3 Zrotation Yrotation Xrotation
					JOINT RightToe
					{
						OFFSET -0.15927 -0.43759 1.61103
						CHANNELS 3 Zrotation Yrotation Xrotation
						End Site
						{
							OFFSET -0.00000 -0.00000 0.84630
						}
					}
				}
			}
		}
	}
	JOINT lowerback
	{
		OFFSET 0 0 0
		CHANNELS 3 Zrotation Yrotation Xrotation
		JOINT Chest
		{
			OFFSET -0.04227 2.04338 -0.00225
			CHANNELS 3 Zrotation Yrotation Xrotation
			JOINT Chest2
			{
				OFFSET -0.02148 2.04482 -0.04273
				CHANNELS 3 Zrotation Yrotation Xrotation
				JOINT lowerneck
				{
					OFFSET 0 0 0
					CHANNELS 3 Zrotation Yrotation Xrotation
					JOINT Neck
					{
						OFFSET 0.09180 1.44629 0.19359
						CHANNELS 3 Zrotation Yrotation Xrotation
						JOINT Head
						{
							OFFSET 0.00887 1.40645 0.14750
							CHANNELS 3 Zrotation Yrotation Xrotation
							End Site
							{
								OFFSET -0.00669 1.50671 0.03707
							}
						}
					}
				}
				JOINT LeftCollar
				{
					OFFSET 0 0 0
					CHANNELS 3 Zrotation Yrotation Xrotation
					JOINT LeftShoulder
					{
						OFFSET 2.17674 1.86763 -0.06520
CHANNELS 3 Zrotation Xrotation Yrotation
						JOINT LeftElbow
						{
OFFSET 0 -4.657760 0.000000
CHANNELS 3 Zrotation Xrotation Yrotation
							JOINT LeftWrist
							{
OFFSET 0 -3.555390 0.000000
CHANNELS 3 Zrotation Xrotation Yrotation
								JOINT lhand
								{
									OFFSET 0 0 0
CHANNELS 3 Zrotation Xrotation Yrotation
									JOINT LFingers
									{
OFFSET 0 -0.707260 0.000000
CHANNELS 3 Zrotation Xrotation Yrotation
										End Site
										{
OFFSET 0 -0.570220 0.000000
										}
									}
								}
								JOINT LThumb
								{
OFFSET 0 0.000000 0.000000
CHANNELS 3 Zrotation Xrotation Yrotation
									End Site
									{
OFFSET 0 -0.578920 0.578920
									}
								}
							}
						}
					}
				}
				JOINT RightCollar
				{
					OFFSET 0 0 0
					CHANNELS 3 Zrotation Yrotation Xrotation
					JOINT RightShoulder
					{
						OFFSET -2.80694 1.55459 -0.32496
CHANNELS 3 Zrotation Xrotation Yrotation
						JOINT RightElbow
						{
OFFSET 0 -4.719250 -0.000000
CHANNELS 3 Zrotation Xrotation Yrotation
							JOINT RightWrist
							{
OFFSET 0 -3.569900 0.000000
CHANNELS 3 Zrotation Xrotation Yrotation
								JOINT rhand
								{
									OFFSET 0 0 0
CHANNELS 3 Zrotation Xrotation Yrotation
									JOINT RFingers
									{
OFFSET 0 -0.507760 0.000000
CHANNELS 3 Zrotation Xrotation Yrotation
										End Site
										{
OFFSET 0 -0.409370 0.000000
										}
									}
								}
								JOINT RThumb
								{
OFFSET 0 0.000000 0.000000
CHANNELS 3 Zrotation Xrotation Yrotation
									End Site
									{
OFFSET 0 -0.415620 0.415620
									}
								}
							}
						}
					}
				}
			}
		}
	}
}
MOTION
Frames: 7
Frame Time: 0.008333333333333333
-0.839800 18.014000 20.894200 172.169000 1.524100 -157.698000 0.000000 0.000000 0.000000 -17.117300 -15.282000 -28.965500 1.498800 7.733100 21.906200 0.152400 -1.112300 -7.065200 0.861300 -5.918100 -16.547100 0.000000 0.000000 0.000000 12.203000 10.590900 -16.749900 -0.068400 -1.686800 4.640900 -0.924600 4.645000 -17.206900 -0.784300 5.653700 -15.782900 -13.303800 -3.234700 -25.676400 -1.579100 -0.241400 1.869600 5.368700 -1.294900 15.927700 -9.337300 0.404200 0.106600 11.691400 0.354800 10.676900 5.152500 0.500500 3.070800 -0.000000 0.000000 0.000000 25.317700 -4.904000 -22.876300 27.530800 -38.680700 9.829100 23.366600 -7.596600 11.764400 0.000000 0.000000 0.000000 -7.125000 0.000000 0.000000 -2.656800 17.206100 -1.753900 -0.000000 0.000000 0.000000 -1.619200 4.826600 13.359300 -14.150200 -22.949100 -2.886400 -20.444200 10.236300 55.272800 0.000000 0.000000 0.000000 7.125000 0.000000 -0.000000 75.910000 79.439000 -65.269700
-0.821318 18.025957 20.925625 172.577466 0.504142 -157.041705 0.000000 0.000000 0.000000 -17.063906 -15.422743 -28.484359 1.396414 7.475299 21.131462 0.149786 -1.250527 -6.977019 0.854810 -5.896224 -16.483478 0.000000 0.000000 0.000000 12.750540 10.746320 -17.385036 -0.069081 -1.696188 4.666739 -0.928277 3.913173 -17.315842 -0.662396 5.205113 -14.494610 -13.127268 -3.534728 -25.595533 -1.279438 -0.791956 1.490383 5.401157 -1.499357 15.545171 -8.953437 0.378665 0.647530 11.437443 0.324007 10.811668 5.006081 0.492633 3.027375 0.000000 0.000000 0.000000 24.341121 -4.671843 -21.297640 26.865157 -38.049794 9.416086 23.317532 -5.011909 11.908466 0.000000 0.000000 0.000000 -7.125000 0.000000 0.000000 -2.697840 17.055439 -1.789947 0.000000 0.000000 0.000000 -1.161509 5.196002 11.649216 -14.456593 -23.383525 -3.007047 -20.057366 11.509393 55.005711 0.000000 0.000000 0.000000 7.125000 0.000000 0.000000 74.397313 79.270486 -63.631762
-0.804235 18.035459 20.955050 173.050985 -0.333806 -156.340703 0.000000 0.000000 0.000000 -16.935333 -15.442585 -28.111962 1.297762 7.216800 20.359562 0.147411 -1.393592 -6.897015 0.842858 -5.855877 -16.366866 0.000000 0.000000 0.000000 13.316289 11.166518 -18.028264 -0.069739 -1.704085 4.688639 -0.942828 3.110734 -17.569430 -0.699354 5.345024 -14.895370 -12.815092 -3.736372 -25.711536 -1.010735 -1.211289 1.168533 5.372119 -1.647020 15.306679 -8.595634 0.326900 1.088731 11.216697 0.262455 10.916603 4.874494 0.470449 2.994529 0.000000 0.000000 0.000000 23.407543 -4.581203 -19.640474 26.223621 -37.427850 9.023577 23.281306 -2.401691 12.066033 0.000000 0.000000 0.000000 -7.125000 0.000000 0.000000 -2.730701 16.889034 -1.821712 0.000000 0.000000 0.000000 -0.701536 5.460335 10.038798 -14.809268 -23.879476 -3.148459 -19.737693 12.732060 55.211132 0.000000 0.000000 0.000000 7.125000 0.000000 0.000000 75.430415 79.160633 -64.511421
-0.801222 18.041097 20.962592 173.570285 -0.623496 -155.731718 0.000000 0.000000 0.000000 -16.799632 -15.481743 -27.755033 1.203626 6.959605 19.596032 0.144920 -1.525779 -6.818283 0.827987 -5.805347 -16.220681 0.000000 0.000000 0.000000 13.829774 11.592104 -18.632974 -0.071119 -1.720208 4.733050 -0.946173 2.806384 -17.653621 -0.727110 5.447947 -15.190877 -12.278275 -3.737032 -26.233302 -0.846597 -1.352583 0.954364 5.200412 -1.671704 15.338493 -8.214173 0.277077 1.533293 10.982033 0.208599 11.015440 4.735037 0.453106 2.958546 0.000000 0.000000 0.000000 22.451479 -4.439238 -17.772620 25.636162 -36.846273 8.668886 23.271555 0.276999 12.210600 0.000000 0.000000 0.000000 -7.125000 0.000000 0.000000 -2.744489 16.734153 -1.840180 0.000000 0.000000 0.000000 -0.189634 5.731859 8.433289 -15.229873 -24.464010 -3.321322 -19.097048 13.823006 55.666977 0.000000 0.000000 0.000000 7.125000 0.000000 0.000000 77.683160 78.937111 -66.456008
-0.809066 18.047514 20.954119 174.249831 -0.521586 -155.242910 0.000000 0.000000 0.000000 -16.470168 -15.577802 -27.422453 1.113731 6.703418 18.840094 0.142785 -1.611318 -6.756504 0.810601 -5.745625 -16.048084 0.000000 0.000000 0.000000 14.473511 11.998897 -19.115401 -0.071052 -1.718437 4.728149 -0.932460 2.934039 -17.497601 -0.681263 5.276128 -14.698161 -11.491971 -3.565181 -26.969851 -0.711793 -1.315372 0.779369 4.924328 -1.605880 15.483297 -7.792724 0.245816 2.136081 10.703350 0.186919 11.095298 4.575113 0.451122 2.888177 0.000000 0.000000 0.000000 21.498330 -4.122491 -15.743600 25.118642 -36.324220 8.360427 23.305695 3.035013 12.223792 0.000000 0.000000 0.000000 -7.125000 0.000000 0.000000 -2.721404 16.716537 -1.825766 0.000000 0.000000 0.000000 0.567939 6.311783 6.358515 -16.014923 -25.536788 -3.654686 -18.120458 15.125329 55.991730 0.000000 0.000000 0.000000 7.125000 0.000000 0.000000 79.139162 78.576854 -67.487596
-0.813869 18.045993 20.955506 175.061701 -0.835545 -154.962058 0.000000 0.000000 0.000000 -16.261659 -15.676764 -27.013265 1.025516 6.440565 18.068710 0.138799 -1.766524 -6.644333 0.800890 -5.711791 -15.950396 0.000000 0.000000 0.000000 15.421997 12.255173 -19.361296 -0.071965 -1.728530 4.756058 -0.930111 2.890955 -17.482103 -0.646633 5.143983 -14.319760 -10.578634 -3.440352 -27.242262 -0.483738 -1.446653 0.632407 4.632875 -1.594851 15.466322 -7.412906 0.204944 2.598438 10.426787 0.157064 11.208109 4.424371 0.446048 2.851528 0.000000 0.000000 0.000000 20.582295 -3.890622 -13.697130 24.640073 -35.833036 8.078622 23.360866 5.816525 12.144217 0.000000 0.000000 0.000000 -7.125000 0.000000 0.000000 -2.679173 16.796824 -1.792596 0.000000 0.000000 0.000000 1.146651 6.722499 4.731898 -16.638137 -26.378164 -3.925205 -17.203152 15.877171 55.868859 0.000000 0.000000 0.000000 7.125000 0.000000 0.000000 78.375163 78.226816 -66.364617
-0.816305 18.034373 20.960516 175.506082 -1.187184 -154.812900 0.000000 0.000000 0.000000 -16.519524 -15.756644 -26.549877 0.939007 6.170789 17.281305 0.132617 -2.015551 -6.475359 0.791162 -5.677870 -15.852477 0.000000 0.000000 0.000000 15.999834 12.202794 -19.660931 -0.079017 -1.812810 4.988562 -0.941327 2.961401 -17.578662 -0.634702 5.097140 -14.185930 -10.023506 -3.379678 -27.281829 -0.370088 -1.552411 0.590503 4.420196 -1.598440 15.452718 -7.060970 0.124974 2.689952 10.177127 0.076708 11.397985 4.289101 0.421097 2.903068 0.000000 0.000000 0.000000 19.738062 -3.936588 -11.701160 24.170078 -35.342847 7.805050 23.388286 8.569046 12.191624 0.000000 0.000000 0.000000 -7.125000 0.000000 0.000000 -2.662440 16.742915 -1.784506 0.000000 0.000000 0.000000 1.211306 6.586038 4.515708 -16.659856 -26.407163 -3.934847 -16.799785 15.628207 55.584898 0.000000 0.000000 0.000000 7.125000 0.000000 0.000000 76.956286 78.060103 -64.803998
